<svg width="100" height="100" viewBox="0 0 100 100" fill="none" xmlns="http://www.w3.org/2000/svg">
<path d="M25.5 75.9999C54.5 89.5 81.5482 64.9141 77 75.9999C72.4518 87.0857 77 84.9999 77 84.9999L58 94.0002H41L19 84.9999L25.5 75.9999Z" fill="white"/>
<path d="M94.5 37H84.5L77 73L94.5 61.5V37Z" fill="white"/>
<path d="M7 42H17L24.5 78L7 66.5V42Z" fill="white"/>
<path d="M47.2751 0.0675713C29.6416 0.970324 13.7131 11.2089 5.54962 26.8859C0.788796 36.0309 -0.967911 46.4823 0.508313 56.7942C3.16552 75.319 16.2892 90.9153 34.1884 96.8235C37.9158 98.0566 41.6728 98.8199 45.821 99.1942C47.8213 99.3703 52.0876 99.3703 54.0879 99.1942C58.2361 98.8199 61.9931 98.0566 65.7205 96.8235C78.047 92.7575 88.3584 83.9868 94.3593 72.4639C100.515 60.6327 101.608 46.6878 97.3708 33.9978C92.4254 19.1868 80.6156 7.44372 65.7205 2.52629C59.823 0.581333 53.5491 -0.255365 47.2751 0.0675713ZM54.3093 0.529957C58.5756 0.933626 62.1333 1.68225 65.9715 2.98133C74.5779 5.89509 82.2026 11.1134 88.0706 18.1153C94.1157 25.3153 97.976 34.1153 99.1496 43.3263C99.467 45.807 99.5187 46.7245 99.5187 49.6749C99.5187 52.6254 99.467 53.5428 99.1496 56.0235C97.5848 68.3318 91.2961 79.6492 81.5456 87.7079C70.127 97.1465 54.8777 100.956 40.1745 98.0346C26.4751 95.319 14.5251 86.9079 7.31371 74.8933C3.48291 68.5153 1.18738 61.3813 0.500932 53.7116C0.368072 52.2144 0.323785 48.618 0.419739 46.996C1.19476 33.7703 6.94465 21.8437 16.8132 12.9703C24.2017 6.33546 33.7086 1.99051 43.5698 0.75748C44.7803 0.610691 45.4889 0.544636 47.5556 0.397847C48.4856 0.331791 53.1726 0.427204 54.3093 0.529957Z" fill="#00C2CB"/>
<path d="M47.2972 3.37037C29.1101 4.40523 13.2407 15.8401 6.52387 32.7428C4.94431 36.7208 3.90357 41.1539 3.47547 45.7117C3.3057 47.5979 3.3057 51.752 3.47547 53.6383C4.3612 63.1428 7.90414 71.8181 13.8238 78.9961C21.3083 88.0676 31.7009 93.9172 43.3114 95.5759C45.7102 95.9208 47.1274 96.0162 49.9544 96.0162C53.3571 96.0162 55.8076 95.7961 58.8486 95.2089C73.6699 92.3612 86.299 82.4016 92.5139 68.6694C94.6249 64.0089 95.9314 58.974 96.4333 53.6383C96.6031 51.752 96.6031 47.5979 96.4333 45.7117C96.0716 41.8511 95.3335 38.3575 94.1378 34.8126C90.7277 24.7428 83.8559 16.0896 74.7549 10.3942C66.5914 5.28596 56.9517 2.81991 47.2972 3.37037ZM50.9804 7.95019C53.2537 8.06028 53.7926 8.12633 54.4273 8.36119C55.3795 8.71348 55.7855 9.28596 55.7855 10.2694C55.7855 11.2089 55.4459 11.7006 54.5676 12.0603L54.1764 12.2144L54.5233 12.3392C54.9735 12.4933 55.505 12.963 55.7043 13.3667C55.9183 13.7997 55.9183 14.6511 55.7117 15.2089C55.5124 15.7227 55.0031 16.1997 54.4347 16.4199C53.6966 16.6915 53.0102 16.7208 50.3603 16.5961C49.0244 16.5373 47.9098 16.4713 47.8951 16.4566C47.8655 16.4272 48.1239 10.3575 48.2346 8.58871L48.2789 7.8401H48.5446C48.6922 7.8401 49.7846 7.89147 50.9804 7.95019ZM44.3816 8.58871L44.6769 8.68413L44.699 9.81441L44.7212 10.9373L44.4407 10.886C43.3852 10.6878 42.5511 10.6511 41.7687 10.7832C41.1044 10.886 40.8756 11.0181 40.8756 11.2896C40.8756 11.6493 41.0823 11.7227 42.4773 11.8401C43.2302 11.9062 43.9092 12.0016 44.1971 12.0896C45.4962 12.4933 46.1014 13.3447 46.0276 14.6658C45.9833 15.3777 45.784 15.8107 45.2378 16.3612C44.1381 17.4474 41.6506 17.9906 39.5765 17.5942L39.2001 17.5208L39.1484 16.4199C39.1189 15.8107 39.1115 15.297 39.1337 15.275C39.1558 15.2529 39.4363 15.275 39.7463 15.3337C40.6468 15.4951 41.9828 15.4658 42.6175 15.2676C43.208 15.0841 43.3335 14.9814 43.2966 14.6878C43.2671 14.3869 43.0604 14.3282 41.6801 14.1961C39.8275 14.0199 39.0451 13.7117 38.5358 12.9557C38.2184 12.486 38.1151 12.1043 38.1151 11.4291C38.1077 10.3942 38.6908 9.57954 39.8053 9.0511C40.2556 8.83826 41.2447 8.57404 41.9459 8.47128C42.3887 8.40523 44.0938 8.48596 44.3816 8.58871ZM60.967 9.27863C61.6535 9.50615 62.207 9.71165 62.207 9.74101C62.207 9.76303 61.8232 10.908 61.3582 12.2731C60.6422 14.3722 60.5094 14.8346 60.5094 15.2089C60.5094 15.5172 60.5537 15.73 60.6496 15.8841C60.8415 16.1924 61.4025 16.4566 61.8897 16.4639C62.2144 16.4639 62.303 16.4346 62.5097 16.2438C62.8271 15.9428 62.9525 15.6346 63.8604 12.919C64.2959 11.6199 64.6797 10.5557 64.7092 10.5557C64.7831 10.5557 67.1302 11.341 67.2188 11.3924C67.3074 11.4511 65.6024 16.4566 65.285 17.0438C64.318 18.8639 62.2366 19.3263 59.8894 18.2327C58.2434 17.4694 57.4757 16.2291 57.6972 14.7172C57.7931 14.108 59.5498 8.86761 59.6606 8.86761C59.6975 8.86761 60.288 9.0511 60.967 9.27863ZM35.1848 13.4695L35.0371 16.5667L35.7457 17.9612C36.1295 18.7318 36.4469 19.3777 36.4469 19.3997C36.4469 19.4364 34.1219 20.6107 34.0481 20.6107C34.0259 20.6107 33.6938 19.9722 33.3173 19.1869L32.6309 17.7704L30.077 16.0162C28.6672 15.0548 27.5158 14.2474 27.5158 14.2254C27.5158 14.174 29.9294 12.9777 30.0327 12.9777C30.077 12.9777 30.6675 13.4034 31.3466 13.9172C32.0256 14.4383 32.6161 14.886 32.6678 14.9153C32.7416 14.9594 32.7638 14.6291 32.749 13.2933L32.7342 11.6199L34.0185 10.9887C34.7271 10.6438 35.3102 10.3575 35.3102 10.3649C35.3176 10.3722 35.2586 11.7667 35.1848 13.4695ZM73.0204 14.7685C74.349 15.2162 75.7957 16.3392 76.5264 17.4988L76.674 17.7263L75.9138 18.2621C75.5004 18.563 75.0576 18.8786 74.9321 18.974L74.6959 19.1502L74.4745 18.7612C74.1645 18.2034 73.5223 17.5869 72.9761 17.3153C72.4078 17.0364 71.8025 17.0071 71.2858 17.2419C70.8651 17.4328 70.3484 17.9759 70.0679 18.5263C69.8834 18.886 69.8465 19.0474 69.8465 19.5098C69.8465 19.9869 69.876 20.1116 70.0532 20.4126C70.4444 21.0731 71.367 21.6016 72.4447 21.7924C72.7178 21.8438 72.954 21.8878 72.9613 21.8951C72.9835 21.9098 72.1789 24.075 72.1347 24.1263C72.0535 24.1997 71.1308 23.9135 70.496 23.6199C67.4476 22.1961 66.3036 19.7887 67.5362 17.352C68.2448 15.9502 69.3446 14.9814 70.6215 14.6291C71.2415 14.4603 72.2823 14.5263 73.0204 14.7685ZM29.7892 20.0162C31.0218 20.7575 32.0183 21.3887 32.0035 21.4181C31.9887 21.4474 31.5385 21.8438 30.9997 22.2988C30.3206 22.8639 29.9811 23.1061 29.8999 23.0768C29.8334 23.0474 29.5087 22.8639 29.1691 22.6658C28.837 22.4603 28.5418 22.2988 28.5196 22.2988C28.4606 22.2988 26.4677 23.9722 26.3791 24.097C26.3348 24.1557 26.416 24.4419 26.63 24.9337C26.8958 25.5722 26.9327 25.697 26.8441 25.785C26.3938 26.2181 24.8881 27.4217 24.8512 27.3777C24.7774 27.297 21.5149 18.9227 21.5445 18.8933C21.5592 18.8786 22.1645 18.3722 22.8878 17.763L24.209 16.6621L25.8772 17.6676C26.7998 18.2181 28.5565 19.275 29.7892 20.0162ZM80.3572 20.7649L81.243 21.8071L79.8848 22.952C79.1393 23.5832 78.5562 24.1043 78.5931 24.119C78.6227 24.1337 79.5158 24.0383 80.5787 23.9208C81.6342 23.7961 82.5789 23.6933 82.6823 23.6933C82.852 23.6933 83.0292 23.8768 84.7047 25.8438C84.7637 25.9098 84.8007 25.9832 84.7859 25.9979C84.7711 26.0126 83.6049 26.1006 82.1877 26.1961L79.6265 26.3649L79.5527 26.6217C79.5158 26.7685 79.2353 27.9061 78.9253 29.1612C78.6227 30.4089 78.3496 31.4951 78.3126 31.5612C78.2757 31.6566 78.0395 31.4217 77.2202 30.4676L76.1869 29.2493L76.7626 27.2309C77.0874 26.1227 77.331 25.2052 77.3162 25.1832C77.294 25.1685 76.6962 25.6603 75.9728 26.2694C75.0059 27.0915 74.6368 27.3704 74.563 27.319C74.504 27.2823 74.098 26.8272 73.6478 26.2988L72.8359 25.352L73.0351 25.1539C73.3156 24.8896 79.405 19.73 79.442 19.73C79.4567 19.73 79.8701 20.1997 80.3572 20.7649ZM53.4235 20.7208C58.8412 21.374 63.8087 23.3557 68.075 26.563C70.3779 28.2878 72.8506 30.8272 74.5114 33.1685C77.0283 36.7135 78.7186 40.7061 79.5084 44.9777C79.8774 46.952 79.9586 47.9282 79.9586 50.3722C79.9586 53.3887 79.7372 55.1942 79.036 57.8584C77.6483 63.2016 74.969 67.774 70.9463 71.6933C66.0969 76.4126 60.2289 79.1942 53.3497 80.0383C51.8366 80.2217 48.146 80.2217 46.6329 80.0383C41.4218 79.3997 36.8455 77.6603 32.6826 74.7465C30.3501 73.1172 27.7741 70.6364 26.0617 68.3685C22.7919 64.0603 20.8432 59.2162 20.1568 53.7117C20.0608 52.897 20.0239 52.1116 20.0239 50.3722C20.0239 48.6328 20.0608 47.8474 20.1568 47.0328C20.7621 42.174 22.3638 37.7924 24.9545 33.9318C26.2315 32.0236 27.3682 30.6731 29.1101 28.9777C34.2252 24.0089 40.632 21.1685 47.9984 20.5814C48.8767 20.5153 52.4713 20.6034 53.4235 20.7208ZM20.7325 25.5355C22.4154 27.275 23.7957 28.7208 23.8105 28.7502C23.8178 28.7795 23.4931 29.352 23.0871 30.0126C22.5335 30.9153 22.3121 31.2089 22.2161 31.1869C22.1497 31.1795 20.9318 30.8052 19.5073 30.3649C18.0901 29.9318 16.9239 29.5795 16.9091 29.5869C16.9017 29.6016 17.7727 30.5117 18.843 31.6199C20.0978 32.919 20.7842 33.675 20.7547 33.7483C20.6735 33.9612 19.3596 36.0383 19.2858 36.0676C19.2046 36.097 10.8566 33.5722 10.7754 33.4915C10.7385 33.4621 11.2478 32.5961 12.0154 31.385L12.2738 30.974L14.6357 32.0016C15.9348 32.5667 17.0789 33.0584 17.1822 33.0951C17.2855 33.1392 16.481 32.2805 15.396 31.2016C14.3036 30.1153 13.4178 29.2052 13.4178 29.1685C13.4178 29.0805 14.9826 26.5557 15.0343 26.5557C15.0638 26.5557 16.2743 26.952 17.7358 27.4364C19.4704 28.0089 20.3413 28.2658 20.2454 28.1777C20.1642 28.1043 19.2046 27.3116 18.1196 26.4162C16.7467 25.286 16.1489 24.7502 16.1784 24.6768C16.2522 24.4786 17.5734 22.3722 17.6251 22.3722C17.6472 22.3722 19.0496 23.7961 20.7325 25.5355ZM86.2252 29.4841C87.5021 30.108 88.6241 32.2438 88.816 34.4162L88.8676 34.9667L87.8343 35.2383C87.2659 35.385 86.7493 35.5098 86.6902 35.5098C86.609 35.5098 86.5795 35.3483 86.5426 34.8272C86.4909 34.0493 86.2843 33.1979 86.0038 32.574C85.7676 32.0456 85.6126 31.8915 85.3321 31.9282C84.9999 31.9649 84.963 32.2951 85.1549 33.3887C85.2435 33.8878 85.3321 34.497 85.3542 34.7465C85.4502 35.686 85.1033 36.7355 84.5497 37.1539C84.1585 37.4548 83.5237 37.7117 83.0439 37.7557C81.922 37.8731 80.8001 37.1539 79.9955 35.8107C79.3829 34.7832 78.8515 32.9997 78.9031 32.1263L78.9253 31.7373L79.9586 31.4584C80.527 31.3043 81.0068 31.1795 81.0289 31.1795C81.051 31.1795 81.1101 31.5465 81.1544 31.9869C81.2651 32.9777 81.4792 33.7997 81.7965 34.4089C82.0918 34.9961 82.3501 35.2016 82.6085 35.0841C82.7118 35.0401 82.8151 34.9153 82.8447 34.8126C82.8668 34.7098 82.8151 34.1594 82.7266 33.5869C82.5125 32.2438 82.5125 31.3557 82.7339 30.7832C83.2359 29.4401 84.8892 28.8236 86.2252 29.4841ZM10.9378 50.8199C11.7571 51.0328 12.8273 51.6639 13.4769 52.3318L13.7869 52.6548L13.3662 52.7795C12.7683 52.963 11.9785 53.3594 11.4987 53.719C11.2773 53.8878 11.0928 53.9979 11.078 53.9539C11.0633 53.9172 10.9304 53.6823 10.7754 53.4254C10.2661 52.5667 9.37298 51.8841 8.32486 51.5465C8.10343 51.4731 7.88938 51.3924 7.85247 51.363C7.78604 51.297 8.20677 51.0107 8.5832 50.8639C9.20322 50.6144 10.0816 50.5997 10.9378 50.8199ZM91.3403 50.8199C91.7832 50.9667 92.2851 51.2823 92.2039 51.363C92.167 51.3924 91.953 51.4731 91.7315 51.5465C90.6834 51.8841 89.7903 52.5667 89.281 53.4254C89.126 53.6823 88.9931 53.9172 88.9784 53.9539C88.9636 53.9979 88.7791 53.8878 88.5576 53.719C88.0779 53.3594 87.2881 52.963 86.6902 52.7795L86.2695 52.6548L86.5795 52.3318C87.4136 51.4805 88.6167 50.8566 89.7755 50.6805C90.1446 50.6217 90.9639 50.6951 91.3403 50.8199ZM7.92628 52.0529C9.13679 52.4639 9.90442 53.0584 10.3547 53.9539L10.613 54.4603L10.2809 54.8272C9.78633 55.3777 9.29917 56.1924 9.03345 56.941L8.79726 57.6089L8.39129 57.1832C7.04793 55.774 6.49435 53.9539 6.97412 52.5447C7.09222 52.1924 7.27675 51.8768 7.35794 51.8768C7.38746 51.8768 7.6458 51.9575 7.92628 52.0529ZM92.9642 52.2584C93.6506 53.6236 93.1118 55.6713 91.6651 57.1832L91.2591 57.6089L91.0229 56.941C90.7572 56.1924 90.2701 55.3777 89.7755 54.8272L89.4434 54.4603L89.7017 53.9539C90.0043 53.352 90.6244 52.7208 91.2222 52.4272C91.702 52.1777 92.5434 51.8841 92.6837 51.8988C92.7427 51.9061 92.8682 52.0676 92.9642 52.2584ZM16.0972 53.4401C16.326 53.5428 16.5179 53.6603 16.5179 53.697C16.5179 53.8584 16.0529 55.0915 15.8758 55.3924C15.396 56.2217 14.4807 56.8529 13.4031 57.1172C12.7314 57.2786 12.2147 57.5135 11.6907 57.9025C10.9599 58.4456 10.5466 59.0988 10.0668 60.4272L10.0151 60.574L9.89704 60.4272C9.37298 59.752 9.2106 58.5483 9.49846 57.4988C9.77895 56.4786 10.3104 55.6346 11.174 54.8052C11.9859 54.0346 12.6133 53.6603 13.5655 53.3667C14.3552 53.1245 15.4772 53.1539 16.0972 53.4401ZM86.4097 53.3447C87.3471 53.6089 88.0557 54.0199 88.8824 54.8052C89.746 55.6346 90.2774 56.4786 90.5579 57.4988C90.8458 58.5483 90.6834 59.752 90.1593 60.4272L90.0412 60.574L89.9896 60.4272C89.5098 59.0988 89.0965 58.4456 88.3657 57.9025C87.8417 57.5135 87.325 57.2786 86.6533 57.1172C85.5757 56.8529 84.6604 56.2217 84.1806 55.3924C84.0035 55.0988 83.5385 53.8658 83.5385 53.697C83.5385 53.6162 84.0773 53.352 84.4021 53.2786C84.9187 53.1539 85.834 53.1905 86.4097 53.3447ZM17.4553 54.7906C18.4591 56.9263 16.7246 60.1483 14.0083 61.1905C13.2555 61.4841 12.3771 61.6016 11.7866 61.4988C11.233 61.4034 10.5097 61.0878 10.554 60.963C10.5761 60.9117 10.6794 60.5961 10.7902 60.2584C11.0411 59.5172 11.4692 58.8566 11.9638 58.4676C12.4731 58.0713 12.7609 57.9392 13.5728 57.7117C14.4586 57.4621 14.9014 57.2493 15.4403 56.8162C16.0086 56.3612 16.4958 55.6419 16.8132 54.8052C17.0936 54.0493 17.101 54.0493 17.4553 54.7906ZM83.2432 54.8126C83.5606 55.6419 84.0478 56.3612 84.6161 56.8162C85.1549 57.2493 85.5978 57.4621 86.4835 57.7117C87.2955 57.9392 87.5833 58.0713 88.0926 58.4676C88.5872 58.8566 89.0153 59.5172 89.2662 60.2584C89.3769 60.5961 89.4803 60.9117 89.5024 60.963C89.5467 61.0878 88.8234 61.4034 88.2698 61.4988C87.6793 61.6016 86.8009 61.4841 86.0481 61.1905C84.4537 60.5814 83.0661 59.1208 82.5273 57.4915C82.2911 56.7649 82.2615 55.6493 82.4608 55.1061C82.5789 54.8052 82.9258 54.152 82.9775 54.152C82.9923 54.152 83.1104 54.4456 83.2432 54.8126ZM71.8985 77.0878C72.2158 77.5502 72.4668 77.9539 72.4668 77.9905C72.4668 78.0199 71.7361 78.541 70.843 79.1355C69.9498 79.7373 69.2043 80.2511 69.1822 80.2805C69.1601 80.3172 69.5439 80.963 69.7063 81.1539C69.721 81.1685 70.2598 80.8383 70.8946 80.4126C71.5368 79.9942 72.1494 79.5905 72.2527 79.5245L72.4447 79.3997L73.0056 80.2438C73.323 80.7061 73.574 81.1172 73.574 81.1465C73.574 81.1832 73.0204 81.5869 72.3413 82.0419C71.6549 82.497 71.0718 82.9006 71.0349 82.93C70.9389 83.0181 71.522 83.8841 71.6475 83.8401C71.6992 83.8181 72.452 83.3263 73.323 82.7392C74.1866 82.152 74.9247 81.675 74.9616 81.675C75.0207 81.675 76.1574 83.3116 76.1574 83.3924C76.1574 83.4364 70.6953 87.1135 70.5846 87.1502C70.5182 87.1722 65.7869 80.2658 65.7352 80.0676C65.7131 80.0016 71.1603 76.2584 71.2932 76.2511C71.3153 76.2438 71.5884 76.6254 71.8985 77.0878ZM29.8408 77.2346C30.9259 77.5135 32.3209 78.4016 33.1107 79.319C33.6126 79.8915 33.8931 80.3245 33.8266 80.4199C33.7823 80.5006 31.9814 81.7483 31.9223 81.7483C31.9002 81.7483 31.7821 81.5649 31.6566 81.3447C31.3466 80.8016 30.6528 80.1263 30.1582 79.8841C29.6342 79.6272 29.0141 79.6126 28.4975 79.8401C27.811 80.141 27.1172 81.1098 27.0212 81.8951C26.9474 82.497 27.1098 82.8933 27.6191 83.3997C28.1432 83.9208 28.7041 84.2071 29.4939 84.3685C29.8039 84.4346 30.077 84.5006 30.0844 84.508C30.0992 84.5153 29.922 85.0217 29.6858 85.6309C29.3537 86.4896 29.2282 86.7392 29.1249 86.7392C28.9108 86.7392 27.8258 86.3208 27.3017 86.0346C25.3457 84.9704 24.2681 83.4951 24.2607 81.8878C24.2533 81.1245 24.3862 80.6107 24.7921 79.8328C25.4786 78.5263 26.5931 77.5502 27.7594 77.2346C28.276 77.1025 29.302 77.0951 29.8408 77.2346ZM65.1816 81.5428C65.3735 82.0713 65.5064 82.5263 65.4769 82.5557C65.4474 82.585 64.5985 82.9153 63.5947 83.2896C62.5835 83.6639 61.7642 84.0016 61.7642 84.0456C61.7642 84.185 62.0816 84.9777 62.1332 84.9777C62.1628 84.9777 62.5466 84.8456 62.9894 84.6768C63.4323 84.508 64.0966 84.2658 64.4657 84.1337L65.1447 83.8915L65.5212 84.8823C65.7278 85.4327 65.8902 85.8878 65.8828 85.8951C65.8681 85.9025 65.2112 86.152 64.4214 86.4456C63.6316 86.7392 62.9599 87.0034 62.923 87.0254C62.8418 87.1061 63.2109 88.0236 63.329 88.0162C63.3806 88.0089 64.2516 87.7006 65.2554 87.3263C66.2593 86.952 67.0933 86.6584 67.1081 86.6731C67.1524 86.7392 67.8167 88.552 67.8167 88.6181C67.8167 88.7135 61.5427 91.0254 61.4689 90.952C61.4394 90.9153 60.7382 89.1025 59.9263 86.9227C58.7748 83.8694 58.4574 82.9447 58.5312 82.9006C58.6493 82.8199 64.6502 80.5814 64.7535 80.5814C64.7978 80.574 64.9897 81.0071 65.1816 81.5428ZM37.8272 81.3814C39.3403 81.741 40.6246 82.6658 41.2151 83.8181C41.7909 84.941 41.7097 86.5557 41.0232 87.9135C40.0563 89.8144 38.1815 90.7172 36.0926 90.2915C34.5131 89.9685 33.1328 89.0071 32.5423 87.8107C32.2471 87.2162 32.1733 86.8346 32.1659 86.0346C32.1585 83.7227 33.7897 81.6309 35.8564 81.286C36.3584 81.2052 37.2662 81.2493 37.8272 81.3814ZM57.771 83.7814C57.8153 84.141 57.8743 84.6254 57.8965 84.875L57.9408 85.3153L56.0364 85.5502C54.9809 85.6823 54.11 85.785 54.0878 85.785C54.0657 85.785 54.073 86.0493 54.1173 86.3722C54.1985 87.0694 54.0066 87.0254 55.8962 86.7832C56.6269 86.6878 57.2322 86.6144 57.2395 86.6217C57.2838 86.6584 57.5053 88.7208 57.4684 88.7575C57.4462 88.7795 56.7745 88.8823 55.9626 88.985C55.1581 89.0878 54.4938 89.1759 54.4864 89.1832C54.4716 89.1905 54.5454 89.8291 54.6488 90.5924C54.7447 91.363 54.8185 92.0383 54.8038 92.097C54.789 92.1777 54.4938 92.2438 53.4973 92.3685C52.7887 92.4566 52.1835 92.5006 52.1613 92.4786C52.1023 92.4052 51.0542 84.0089 51.0985 83.9649C51.1427 83.9135 57.0107 83.1649 57.4167 83.1502L57.6824 83.1428L57.771 83.7814ZM46.8765 83.686C48.6184 83.8694 50.0577 84.0309 50.0799 84.0529C50.1315 84.1043 49.947 86.1006 49.888 86.1667C49.8584 86.2034 49.0244 86.1447 48.0353 86.0419C47.0388 85.9392 46.1752 85.8584 46.1014 85.8584C46.0055 85.8584 45.9686 85.9685 45.9317 86.4089C45.9021 86.7172 45.8948 86.9814 45.9095 87.0034C45.9317 87.0181 46.6034 87.0988 47.4153 87.1869C48.2198 87.2676 48.8915 87.3483 48.9063 87.363C48.9358 87.3924 48.7217 89.4621 48.6848 89.4988C48.6701 89.5061 48.0131 89.4548 47.2308 89.374C46.441 89.2933 45.7619 89.2419 45.7102 89.2566C45.6586 89.2786 45.5774 89.8364 45.4962 90.7098C45.415 91.4951 45.3338 92.1557 45.3117 92.185C45.2526 92.2511 42.7799 92.0236 42.6914 91.9428C42.6545 91.9061 42.8021 90.1447 43.053 87.6199C43.4221 84.0089 43.5033 83.363 43.6066 83.363C43.6657 83.363 45.1419 83.5098 46.8765 83.686Z" fill="#00C2CB"/>
<path d="M50.8107 10.6878C50.7886 11.1134 50.7738 11.4657 50.7812 11.4804C50.8034 11.5024 51.9401 11.5245 52.2943 11.5171C52.442 11.5098 52.6191 11.4364 52.7594 11.3043C52.9439 11.1428 52.9882 11.0474 52.9955 10.7978C53.0029 10.1667 52.7372 10.0052 51.5341 9.94647L50.8624 9.91711L50.8107 10.6878Z" fill="#00C2CB"/>
<path d="M50.6926 13.3594C50.6926 13.5355 50.6705 13.8951 50.641 14.1667L50.5967 14.6658H51.571C52.7298 14.6658 52.9291 14.5997 53.062 14.152C53.1727 13.785 53.0472 13.4548 52.7298 13.2933C52.5453 13.1979 51.571 13.0731 50.8255 13.0584C50.7222 13.0511 50.6926 13.1172 50.6926 13.3594Z" fill="#00C2CB"/>
<path d="M24.2238 19.4805C24.6002 20.464 25.3457 22.152 25.39 22.1374C25.486 22.1007 26.6965 21.0952 26.7038 21.0438C26.7038 21.0144 26.1355 20.6254 25.4417 20.1777C24.7478 19.7227 24.1943 19.4144 24.2238 19.4805Z" fill="#00C2CB"/>
<path d="M57.8964 30.6804C57.52 30.9006 57.3354 31.2529 57.3354 31.752C57.3354 33.1391 58.7379 34.974 60.3986 35.7446C60.8636 35.9575 60.9817 35.9795 61.5944 35.9868C62.2144 35.9868 62.2882 35.9721 62.4653 35.8033C62.768 35.5244 62.8713 35.2676 62.8713 34.7905C62.8713 33.462 61.5575 31.7006 59.9631 30.9153C59.3948 30.6364 59.2029 30.5776 58.7379 30.5483C58.2507 30.5189 58.1474 30.5336 57.8964 30.6804Z" fill="black"/>
<path d="M32.166 36.3685C31.3615 36.4566 30.6086 36.8456 29.8631 37.5502C28.9036 38.4603 28.3057 39.4291 27.9883 40.574C27.8038 41.2419 27.7964 42.8493 27.981 43.5098C28.4607 45.2419 29.5088 46.8272 30.9777 48.0383L31.4575 48.4272L31.701 47.752L31.9446 47.0768L31.4427 46.5924C29.6565 44.8896 28.8962 42.8199 29.3538 40.9116C29.6565 39.6639 30.3503 38.7025 31.2729 38.2401C32.6901 37.5355 34.122 37.8437 35.5687 39.1648L35.9895 39.5465L36.3807 38.9814L36.7719 38.4162L36.3659 38.0566C35.4875 37.2713 34.2844 36.6327 33.288 36.4272C32.8008 36.3171 32.668 36.3171 32.166 36.3685Z" fill="black"/>
<path d="M40.9865 37.374C40.8832 37.5281 40.8684 37.6602 40.9053 38.0272C40.9275 38.2841 40.9939 38.6364 41.0456 38.8199L41.1415 39.1428L41.8353 39.1868C44.249 39.341 46.6183 40.4052 48.3307 42.1153C50.1243 43.8914 50.6853 45.5208 50.6927 48.9043C50.7001 51.8621 50.9215 52.7208 51.8368 53.3446C52.5527 53.8364 53.5861 54.0933 55.3945 54.2254C57.4612 54.3795 59.3655 54.0712 61.1222 53.2786L61.6315 53.0511L61.3879 52.7428C59.9338 50.8859 58.3469 49.1244 56.2359 47.0327C52.0582 42.8932 48.0576 39.8327 44.6771 38.1887C43.223 37.4841 42.5587 37.2639 41.7541 37.2199C41.1267 37.1832 41.112 37.1832 40.9865 37.374Z" fill="black"/>
<path d="M38.2777 40.8455C35.9452 44.1629 34.0335 48.251 33.3175 51.451C32.7492 53.9685 32.6902 56.4051 33.133 58.5923C34.0114 62.9079 37.3845 67.0914 41.6213 69.1244C43.7987 70.1666 45.8802 70.585 48.4415 70.4969C50.8625 70.4088 52.9366 69.9538 55.5643 68.9262C57.9041 68.0088 60.7532 66.4675 62.8642 64.985C63.2554 64.7061 63.3144 64.64 63.1963 64.6033C62.5468 64.3758 61.7939 64.0455 60.9156 63.5905C54.1028 60.0969 44.8395 51.1648 40.5584 43.9721C39.9827 43.0033 39.2815 41.6308 38.9936 40.9042C38.8829 40.618 38.7722 40.3611 38.7353 40.3318C38.7058 40.2951 38.4991 40.5299 38.2777 40.8455ZM46.264 53.5721C48.1019 54.0418 49.3567 55.2675 49.8956 57.1391C50.0358 57.6162 50.0653 57.8804 50.0579 58.7391C50.0579 59.6125 50.021 59.8767 49.8586 60.5006C49.2608 62.7171 47.6074 64.8455 45.5555 66.0272C44.2564 66.7758 42.603 67.1941 41.2523 67.1207C40.3518 67.0694 39.8277 66.9299 38.9715 66.5116C36.6021 65.3593 35.6574 62.5262 36.6391 59.5391C37.1484 57.9685 38.285 56.3684 39.6136 55.3262C41.732 53.6675 44.1309 53.0363 46.264 53.5721Z" fill="black"/>
<path d="M44.0421 53.9318C41.2594 54.2694 38.521 56.3759 37.3622 59.0768C36.4986 61.1025 36.5872 63.1869 37.5984 64.6694C38.0486 65.3226 38.4767 65.6823 39.2887 66.086C40.1744 66.519 40.8313 66.6584 41.8352 66.6071C45.2969 66.4236 48.4191 63.8034 49.3787 60.2804C49.5115 59.8034 49.541 59.4951 49.541 58.6658C49.5337 57.7557 49.5115 57.5722 49.3417 57.0437C48.7291 55.1942 47.1569 54.0419 45.0828 53.9098C44.7802 53.8878 44.3078 53.9025 44.0421 53.9318ZM45.7471 55.5905C45.7914 55.6346 45.7693 55.796 45.666 56.0603C45.5774 56.2804 45.4593 56.7575 45.4002 57.1245C45.2748 57.8951 45.1271 58.2621 44.7655 58.6658C44.3816 59.1061 43.865 59.3557 43.0678 59.4804C42.1747 59.6199 41.7909 59.752 41.252 60.097C40.1523 60.8015 39.6282 61.6603 39.3699 63.1722C39.2075 64.097 39.178 64.141 38.927 63.8181C38.1372 62.7905 38.152 60.9557 38.9639 59.363C39.6061 58.0933 40.9789 56.6988 42.1673 56.119C42.588 55.9061 43.3483 55.6493 43.8354 55.5465C44.2562 55.4658 45.6438 55.4878 45.7471 55.5905ZM47.5039 56.8456C48.2936 58.1006 48.146 59.9208 47.1053 61.6529C46.6476 62.4162 45.5405 63.5465 44.7728 64.0456C43.6509 64.7722 42.374 65.1465 41.3185 65.0658C40.6247 65.0144 40.477 64.963 40.5508 64.8015C40.7354 64.3905 40.8756 63.8768 40.942 63.363C41.0454 62.6364 41.2963 62.1153 41.7318 61.7116C42.1599 61.3226 42.5585 61.1465 43.2449 61.0511C44.4259 60.8823 45.0459 60.596 45.7914 59.8474C46.4557 59.1869 46.7436 58.6144 46.9281 57.5648C47.1496 56.3318 47.1643 56.3098 47.5039 56.8456Z" fill="black"/>
<path d="M43.6067 56.141C42.4922 56.4272 41.6507 56.9263 40.7798 57.807C40.0712 58.5189 39.7538 58.9446 39.3921 59.6932C39.0009 60.5006 38.8828 61.0143 38.8828 61.8951L38.8902 62.629L39.0895 62.0419C39.68 60.3318 41.0455 59.2455 42.9203 58.9887C43.5993 58.8932 44.1013 58.6584 44.4113 58.2841C44.6844 57.9538 44.8172 57.6015 44.9279 56.9043C44.9722 56.618 45.0313 56.3024 45.0534 56.185L45.0977 55.9868L44.6327 55.9942C44.3744 55.9942 43.9093 56.0602 43.6067 56.141Z" fill="black"/>
<path d="M47.3417 58.1666C47.3121 58.3428 47.1571 58.7464 46.9948 59.0767C46.6331 59.818 45.8138 60.6694 45.1052 61.0363C44.6107 61.2932 43.6659 61.5648 43.2452 61.5648C42.6916 61.5721 41.9682 62.0492 41.6804 62.607C41.6065 62.7611 41.5032 63.1281 41.4663 63.429C41.422 63.7226 41.3556 64.0822 41.3187 64.2143C41.2744 64.3538 41.2449 64.4932 41.2449 64.5299C41.2449 64.64 42.4406 64.5153 42.9425 64.3464C43.9168 64.0308 44.6549 63.5831 45.4595 62.8345C46.884 61.4987 47.6886 59.6345 47.4598 58.2253L47.4007 57.8583L47.3417 58.1666Z" fill="black"/>
<path d="M66.4365 41.0291C66.1044 41.1905 66.2372 41.7483 66.8425 42.8052C67.278 43.5539 67.6175 44.4346 67.8389 45.3814C68.0456 46.2841 68.0604 48.0383 67.8611 48.941C67.2115 51.9282 65.4474 54.0713 62.4655 55.5172C60.694 56.3685 58.9742 56.7795 56.9518 56.8456L55.6379 56.8896L56.4203 57.5062C56.8558 57.8438 57.5718 58.3869 58.0147 58.7025C58.9225 59.3557 58.9594 59.363 59.8452 59.1795C61.779 58.7759 63.5357 57.8071 65.0562 56.3025C65.8903 55.4878 66.1486 55.363 66.7391 55.4878C67.5215 55.6566 67.957 56.5153 67.6396 57.2713C67.5068 57.5795 66.5546 58.5777 65.8239 59.1649C64.8127 59.9722 63.425 60.7722 62.4286 61.1172L62.0226 61.2566L62.7607 61.6016C63.8162 62.0933 64.9308 62.4529 65.5729 62.497L66.1117 62.541L66.717 61.9612C69.1454 59.6199 70.7176 56.3392 71.2859 52.4199C71.4852 51.0768 71.5516 48.941 71.4409 47.8034C71.1161 44.5447 69.8466 42.174 67.8832 41.1979C67.3444 40.9263 66.7834 40.8603 66.4365 41.0291Z" fill="black"/>
<path d="M42.7431 42.4749C43.9832 44.5813 46.1458 47.5171 47.7623 49.3006L48.1092 49.6896V49.007C48.1092 48.0602 47.9837 46.7318 47.8435 46.2033C47.5704 45.1391 46.8101 44.0969 45.7399 43.2969C44.8246 42.607 43.6879 42.0859 42.7136 41.9098L42.3667 41.8437L42.7431 42.4749Z" fill="black"/>
<path d="M9.33609 51.2089L9.06299 51.2529L9.48371 51.4731C10.089 51.7887 10.9304 52.5961 11.2478 53.1832C11.2699 53.2199 12.7535 52.4272 12.7535 52.3759C12.7535 52.3539 12.5247 52.1777 12.2369 51.9869C11.3438 51.3924 10.1406 51.0694 9.33609 51.2089Z" fill="white"/>
<path d="M89.7019 51.2162C89.1409 51.3043 88.3732 51.6199 87.8123 51.9942C87.5318 52.1777 87.303 52.3539 87.303 52.3759C87.303 52.4272 88.7866 53.2199 88.8087 53.1832C89.1261 52.5961 89.9602 51.7961 90.5876 51.4584C90.8755 51.3043 90.9788 51.2162 90.8755 51.2162C90.7869 51.2162 90.5728 51.2016 90.3957 51.1869C90.2185 51.1649 89.9085 51.1795 89.7019 51.2162Z" fill="white"/>
<path d="M7.43191 52.8088C7.26953 53.3739 7.3212 54.2473 7.55001 54.8859C7.76406 55.4804 7.91169 55.7519 8.31027 56.3024L8.56123 56.6473L8.87123 56.0088C9.04838 55.6492 9.35839 55.1354 9.56506 54.8638C9.77911 54.5923 9.94888 54.3354 9.94888 54.2914C9.94888 54.1372 9.57244 53.6455 9.18124 53.2932C8.88599 53.0216 8.60551 52.8602 8.17003 52.6914C7.84526 52.5666 7.56477 52.4638 7.55001 52.4638C7.54263 52.4638 7.49096 52.618 7.43191 52.8088Z" fill="white"/>
<path d="M91.857 52.6987C91.4584 52.8528 91.1632 53.029 90.8753 53.2932C90.4841 53.6455 90.1077 54.1372 90.1077 54.2914C90.1077 54.3354 90.2774 54.5923 90.4915 54.8638C90.6982 55.1354 91.0082 55.6492 91.1853 56.0088L91.4953 56.6473L91.7463 56.3024C92.3958 55.3996 92.6985 54.607 92.7132 53.7482C92.7206 53.2051 92.5877 52.4565 92.477 52.4712C92.4549 52.4712 92.1744 52.5739 91.857 52.6987Z" fill="white"/>
<path d="M13.7944 53.8217C12.9677 54.0566 12.2517 54.4969 11.4546 55.2896C10.805 55.9281 10.6648 56.1116 10.3696 56.7208C10.185 57.1024 9.99312 57.5648 9.95621 57.7483C9.86764 58.13 9.8455 59.2162 9.93407 59.2162C9.9636 59.2162 10.0817 59.0327 10.1998 58.8125C10.4138 58.4015 10.9674 57.7777 11.4251 57.44C11.8532 57.1171 12.5322 56.8162 13.263 56.6107C14.0749 56.3832 14.2963 56.2804 14.7318 55.9281C15.1378 55.6052 15.4994 55.0621 15.743 54.4235L15.9275 53.9318L15.7282 53.8437C15.4035 53.7116 14.252 53.6969 13.7944 53.8217Z" fill="white"/>
<path d="M84.572 53.7629C84.513 53.785 84.3875 53.8363 84.2915 53.8657L84.1292 53.9318L84.3137 54.4235C84.5573 55.062 84.9189 55.6052 85.3249 55.9281C85.7604 56.2804 85.9818 56.3831 86.7937 56.6107C87.5245 56.8162 88.2035 57.1171 88.6316 57.44C89.0893 57.7776 89.6428 58.4015 89.8569 58.8125C89.975 59.0327 90.0931 59.2162 90.13 59.2162C90.2112 59.2162 90.189 58.1299 90.1005 57.7483C90.0636 57.5648 89.8717 57.1024 89.6871 56.7208C89.3919 56.1116 89.2516 55.9281 88.6021 55.2896C87.7902 54.4822 87.0742 54.0418 86.2254 53.8217C85.812 53.7189 84.8008 53.6822 84.572 53.7629Z" fill="white"/>
<path d="M16.8869 55.8988C16.5104 56.6254 15.7502 57.352 14.9604 57.7336C14.6209 57.9024 14.082 58.1079 13.7573 58.1887C13.4399 58.2694 13.0708 58.3942 12.9453 58.4602C12.1777 58.8492 11.6241 59.4804 11.3141 60.3391L11.137 60.8162L11.447 60.8896C12.0227 61.0364 12.2884 61.051 12.8125 60.9777C14.5397 60.7355 16.2226 59.363 16.9311 57.6089C17.1452 57.0804 17.2707 56.2144 17.1969 55.752L17.1452 55.3997L16.8869 55.8988Z" fill="white"/>
<path d="M82.8521 55.7813C82.6306 57.6528 84.1659 59.8914 86.2326 60.7134C87.0667 61.0437 87.79 61.0951 88.6093 60.8895L88.9193 60.8162L88.7422 60.3391C88.4322 59.4804 87.8786 58.8492 87.111 58.4602C86.9855 58.3941 86.6164 58.2694 86.299 58.1886C85.9743 58.1079 85.4354 57.9024 85.0959 57.7336C84.3135 57.3593 83.5533 56.6326 83.1621 55.8914L82.8963 55.3849L82.8521 55.7813Z" fill="white"/>
<path d="M36.5135 83.5538C35.8861 83.7447 35.3178 84.4786 35.0151 85.4841C34.587 86.93 35.3473 88.1337 36.7054 88.1337C37.2295 88.1337 37.5395 88.0016 37.9159 87.6272C38.6319 86.9153 39.0378 85.4401 38.75 84.6034C38.4695 83.8107 37.3623 83.2896 36.5135 83.5538Z" fill="#00C2CB"/>
<path d="M22 13L46.5 5L75.5 13L94 39L86 44.5L75.5 31L61.5 20H37.5L19 39H5.5L22 13Z" fill="#00C2CB"/>
<path d="M45.02 7.54C45.908 7.54 46.684 7.72 47.348 8.08C48.02 8.432 48.536 8.928 48.896 9.568C49.256 10.208 49.436 10.94 49.436 11.764C49.436 12.58 49.252 13.308 48.884 13.948C48.524 14.588 48.008 15.092 47.336 15.46C46.672 15.82 45.9 16 45.02 16H41.672V7.54H45.02ZM44.84 13.924C45.528 13.924 46.068 13.736 46.46 13.36C46.852 12.984 47.048 12.452 47.048 11.764C47.048 11.068 46.852 10.532 46.46 10.156C46.068 9.772 45.528 9.58 44.84 9.58H44.024V13.924H44.84ZM58.3322 16H55.9802L52.8482 11.272V16H50.4962V7.54H52.8482L55.9802 12.328V7.54H58.3322V16Z" fill="white"/>
</svg>
